<svg width="47" height="43" viewBox="0 0 47 43" fill="none" xmlns="http://www.w3.org/2000/svg">
<g clip-path="url(#clip0_1_443)">
<path d="M35.2 12.74V29.65C35.2 31.83 33.44 33.59 31.26 33.59L17.6 33.66L9.6 42.46V33.66H3.94C1.77 33.66 0 31.89 0 29.71V12.8C0 10.62 1.77 8.85005 3.94 8.85005L31.26 8.80005C33.43 8.80005 35.2 10.57 35.2 12.74Z" fill="#EA3A60"/>
<path d="M17.6 17.6H7.20002C6.76002 17.6 6.40002 17.24 6.40002 16.8C6.40002 16.36 6.76002 16 7.20002 16H17.6C18.04 16 18.4 16.36 18.4 16.8C18.4 17.24 18.04 17.6 17.6 17.6Z" fill="white"/>
<path d="M28 22.4H7.20002C6.76002 22.4 6.40002 22.0401 6.40002 21.6C6.40002 21.16 6.76002 20.8 7.20002 20.8H28C28.44 20.8 28.8 21.16 28.8 21.6C28.8 22.0401 28.44 22.4 28 22.4Z" fill="white"/>
<path d="M28 27.2001H7.20002C6.76002 27.2001 6.40002 26.8401 6.40002 26.4001C6.40002 25.9601 6.76002 25.6001 7.20002 25.6001H28C28.44 25.6001 28.8 25.9501 28.8 26.4001C28.8 26.8401 28.44 27.2001 28 27.2001Z" fill="white"/>
<path opacity="0.5" d="M42.46 0.05L15.14 0C12.96 0 11.19 1.77 11.19 3.94V8.84L31.26 8.8C33.44 8.8 35.2 10.56 35.2 12.74V27.5L40.8 33.66V24.86H42.46C44.64 24.86 46.4 23.1 46.4 20.92V4C46.4 1.82 44.63 0.05 42.46 0.05Z" fill="#EA3A60"/>
</g>
<defs>
<clipPath id="clip0_1_443">
<rect width="46.4" height="42.46" fill="white"/>
</clipPath>
</defs>
</svg>
